<?xml version="1.0" standalone="no"?>
<!DOCTYPE svg PUBLIC "-//W3C//DTD SVG 20010904//EN"
 "http://www.w3.org/TR/2001/REC-SVG-20010904/DTD/svg10.dtd">
<svg version="1.0" xmlns="http://www.w3.org/2000/svg"
 width="1000.000000pt" height="1000.000000pt" viewBox="0 0 1000.000000 1000.000000"
 preserveAspectRatio="xMidYMid meet">
<metadata>
Created by potrace 1.16, written by Peter Selinger 2001-2019
</metadata>
<g transform="translate(0.000000,1000.000000) scale(0.100000,-0.100000)"
fill="#000000" stroke="none">
<path d="M0 5000 l0 -5000 5000 0 5000 0 0 5000 0 5000 -5000 0 -5000 0 0
-5000z m5236 2995 c75 -142 256 -384 426 -570 331 -362 477 -652 478 -947 0
-218 -55 -383 -238 -705 -181 -319 -334 -656 -454 -998 l-38 -110 6 85 c7 108
27 223 64 375 52 216 117 393 285 775 98 222 151 380 166 497 11 81 10 103 -5
175 -51 242 -239 520 -611 906 -70 73 -137 138 -147 143 -17 9 -35 -4 -130
-98 -423 -415 -669 -799 -668 -1042 1 -149 41 -275 210 -671 189 -440 267
-698 305 -1000 17 -142 18 -168 3 -125 -152 436 -316 803 -498 1115 -247 422
-287 700 -150 1037 72 175 190 347 411 598 274 311 432 542 485 708 l17 56 23
-67 c12 -37 39 -98 60 -137z m9 -1180 c53 -88 134 -214 180 -281 130 -189 157
-255 174 -424 24 -231 -33 -479 -177 -766 -150 -299 -198 -695 -190 -1556 l4
-458 -94 0 -94 0 8 138 c15 241 9 896 -10 1107 -34 394 -73 560 -181 780 -126
256 -175 437 -175 650 0 125 17 231 50 315 12 30 77 139 146 243 68 103 155
239 192 301 37 63 68 113 69 112 1 0 45 -73 98 -161z m-2196 -103 c82 -197
294 -449 551 -655 101 -81 341 -244 460 -312 239 -136 402 -261 496 -378 74
-93 105 -163 148 -333 38 -152 84 -292 141 -424 l36 -85 -51 50 c-119 115
-221 278 -306 489 -96 240 -323 446 -714 649 -238 124 -409 236 -617 405 l-43
34 -20 -46 c-41 -96 -82 -234 -112 -380 -31 -146 -32 -159 -32 -396 0 -222 2
-253 22 -325 48 -176 133 -295 252 -355 203 -102 699 -259 1175 -371 54 -13
92 -25 83 -27 -20 -4 -336 42 -508 74 -175 33 -457 103 -596 149 -123 41 -309
127 -381 176 -154 106 -242 242 -295 457 -18 72 -22 117 -22 262 0 193 17 317
74 525 66 245 160 608 191 742 19 78 36 139 40 135 3 -4 16 -31 28 -60z m4350
-347 c50 -198 102 -398 116 -444 144 -477 101 -922 -113 -1162 -186 -209 -662
-374 -1377 -478 -265 -39 -295 -38 -125 3 499 122 926 255 1130 355 178 87
267 244 301 532 21 180 -5 447 -66 684 -27 106 -86 279 -100 293 -2 2 -49 -33
-105 -78 -148 -117 -329 -234 -543 -349 -216 -116 -352 -204 -453 -293 -148
-131 -239 -256 -290 -400 -38 -105 -84 -191 -150 -285 -55 -75 -136 -167 -179
-203 -16 -13 -16 -11 2 25 44 86 124 319 157 456 51 214 83 275 210 407 93 97
202 176 421 307 531 317 854 617 1008 934 46 96 53 105 59 82 4 -14 48 -188
97 -386z m-4006 -748 c60 -83 154 -177 228 -228 65 -44 117 -65 259 -104 123
-34 276 -109 370 -182 57 -45 92 -83 147 -163 40 -58 104 -142 143 -187 39
-46 69 -83 67 -83 -2 0 -29 9 -60 19 -98 34 -188 88 -327 195 -74 58 -161 121
-195 141 -69 41 -228 105 -332 134 l-73 20 0 -64 c0 -146 42 -248 144 -350
129 -129 265 -180 511 -195 148 -9 182 -15 239 -41 l28 -13 -28 -8 c-16 -5
-132 -11 -259 -14 -180 -5 -252 -3 -330 9 -315 49 -461 163 -553 432 -41 123
-72 434 -72 735 l0 125 24 -57 c13 -31 44 -86 69 -121z m3597 -245 c-23 -390
-83 -581 -224 -709 -68 -62 -131 -96 -236 -126 -138 -40 -258 -51 -500 -44
-118 4 -228 10 -244 15 l-29 8 39 17 c55 24 134 37 231 37 245 0 478 111 585
280 43 67 68 160 68 250 l0 79 -72 -20 c-97 -27 -238 -83 -315 -125 -34 -19
-122 -81 -195 -138 -155 -120 -237 -170 -332 -202 -38 -13 -72 -24 -74 -24 -3
0 15 21 39 48 65 69 109 126 179 230 120 178 252 256 625 372 38 12 96 37 127
56 113 69 259 233 310 349 l23 53 3 -112 c2 -61 -2 -193 -8 -294z"/>
<path d="M5105 6414 c-21 -48 -64 -128 -96 -178 -78 -124 -101 -195 -107 -328
-10 -229 53 -441 195 -663 l45 -69 24 27 c35 41 104 163 140 248 73 172 103
353 84 504 -14 110 -35 172 -89 255 -24 36 -68 116 -98 178 -31 61 -56 112
-57 112 -1 0 -19 -39 -41 -86z"/>
</g>
</svg>
